# xmcd CD database file
#
# Track frame offsets:
#	183
#	13370
#	27850
#	42310
#	57110
#	71338
#	85948
#	98945
#	113625
#	127810
#	142825
#	154438
#	165653
#	180635
#	194810
#	206935
#	220983
#	235018
#
# Disc length: 3325 seconds
#
# Revision: 0
# Processed by: cddbd v1.5.1PL0 Copyright (c) Steve Scherf et al.
# Submitted via: CDex 1.51
#
DISCID=000cfb12
DTITLE=Les Génies du Jazz - III 16 - Tommy Dorsey (Sentimental Gentleman Featuring Frank Sinatra)
DYEAR=1900
DGENRE=Jazz
TTITLE0=Whispering
TTITLE1=Stardust
TTITLE2=Imagination
TTITLE3=East of the Sun (and West of the Moon)
TTITLE4=Boogie Woogie
TTITLE5=Weary Blues
TTITLE6=Royal Garden Blues
TTITLE7=Little White Lies
TTITLE8=Song of India
TTITLE9=Marie
TTITLE10=Mendelssohn's Spring Song
TTITLE11=The sheik of Araby
TTITLE12=Symphony of Riffs
TTITLE13=Copenhagen
TTITLE14=Old Black Joe
TTITLE15=Hawaiian War Chant
TTITLE16=Who
TTITLE17=Well Allright
EXTD=
EXTT0=
EXTT1=
EXTT2=
EXTT3=
EXTT4=
EXTT5=
EXTT6=
EXTT7=
EXTT8=
EXTT9=
EXTT10=
EXTT11=
EXTT12=
EXTT13=
EXTT14=
EXTT15=
EXTT16=
EXTT17=
PLAYORDER=
